# xmcd CD database file
#
# Track frame offsets:
#        150
#        16895
#        38158
#        51919
#        66462
#        83012
#        100267
#        114508
#        129915
#        147304
#        162707
#        179352
#
# Disc length: 2716 seconds
#
# Revision: 0
# Processed by: cddbd v1.5.2PL0 Copyright (c) Steve Scherf et al.
# Submitted via: CUERipper 2.1.5
#
DISCID=a40a9a0c
DTITLE=Paul Benjaman Band - Sneaker
DYEAR=2015
DGENRE=
TTITLE0=Sneaker
TTITLE1=Estoy Loco
TTITLE2=Ball and Chain
TTITLE3=Auburn Plaid
TTITLE4=Your Music
TTITLE5=Showdown State
TTITLE6=Ringside
TTITLE7=Shake Your Tree
TTITLE8=Monticello Honeymoon
TTITLE9=Lortab Mama
TTITLE10=El Matador
TTITLE11=Black Magic Country
EXTD=
EXTT0=
EXTT1=
EXTT2=
EXTT3=
EXTT4=
EXTT5=
EXTT6=
EXTT7=
EXTT8=
EXTT9=
EXTT10=
EXTT11=
PLAYORDER=
